<mxfile host="app.diagrams.net" modified="2023-12-31T10:09:37.046Z" agent="Mozilla/5.0 (Windows NT 10.0; Win64; x64) AppleWebKit/537.36 (KHTML, like Gecko) Chrome/120.0.0.0 Safari/537.36 Edg/120.0.0.0" version="22.1.16" etag="1nCg604xiHP1jaFb10LF" type="github">
  <diagram name="Trang-1" id="ErwiorRDN-wNK83X_GED">
    <mxGraphModel>
      <root>
        <mxCell id="0" />
        <mxCell id="1" parent="0" />
      </root>
    </mxGraphModel>
  </diagram>
</mxfile>
